# xmcd
#
# Track frame offsets: 
#        150
#        17848
#        40895
#        55616
#        82596
#        99292
#        104183
#        121355
#        142493
#        171463
#        186433
#
# Disc length: 2592 seconds
#
# Revision: 0
# Processed by: cddbd v1.5.2PL0 Copyright (c) Steve Scherf et al.
# Submitted via: ExactAudioCopyFreeDBPlugin 1.0
#
DISCID=990a1e0b
DTITLE=Anna and Elizabeth  - The Invisible Comes To Us 
DYEAR=2018
DGENRE=Country Folk
TTITLE0=Jeano
TTITLE1=Black Eyed Susan
TTITLE2=Ripest of Apples
TTITLE3=Irish Patriot
TTITLE4=John of Hazelgreen
TTITLE5=Woman is Walking
TTITLE6=Virginia Rambler
TTITLE7=By the Shore
TTITLE8=Farewell to Erin
TTITLE9=Mother in The Graveyard
TTITLE10=Margaret
EXTD=
EXTT0=
EXTT1=
EXTT2=
EXTT3=
EXTT4=
EXTT5=
EXTT6=
EXTT7=
EXTT8=
EXTT9=
EXTT10=
PLAYORDER=
